<svg width="24" height="24" viewBox="0 0 24 24" fill="none" xmlns="http://www.w3.org/2000/svg">
<g clip-path="url(#clip0_8228_21102)">
<path d="M20.0938 1.9987C20.0938 1.82189 20.0235 1.65232 19.8985 1.52729C19.7735 1.40227 19.6039 1.33203 19.4271 1.33203H4.76042C4.58361 1.33203 4.41404 1.40227 4.28901 1.52729C4.16399 1.65232 4.09375 1.82189 4.09375 1.9987V2.66536H20.0938V1.9987Z" fill="#081821"/>
<path d="M21.4128 4.66667C21.4128 4.48986 21.3425 4.32029 21.2175 4.19526C21.0925 4.07024 20.9229 4 20.7461 4H3.41276C3.23595 4 3.06638 4.07024 2.94136 4.19526C2.81633 4.32029 2.74609 4.48986 2.74609 4.66667V5.33333H21.4128V4.66667Z" fill="#081821"/>
<path d="M21.4159 6.66797H2.58927C2.25687 6.66797 1.93808 6.81202 1.70303 7.06843C1.46798 7.32485 1.33594 7.67262 1.33594 8.03524V21.3007C1.33594 21.6633 1.46798 22.0111 1.70303 22.2675C1.93808 22.5239 2.25687 22.668 2.58927 22.668H21.4159C21.7483 22.668 22.0671 22.5239 22.3022 22.2675C22.5372 22.0111 22.6693 21.6633 22.6693 21.3007V8.03524C22.6693 7.67262 22.5372 7.32485 22.3022 7.06843C22.0671 6.81202 21.7483 6.66797 21.4159 6.66797ZM5.70927 9.17706C6.10483 9.17706 6.49151 9.30502 6.82041 9.54476C7.14931 9.7845 7.40565 10.1253 7.55703 10.5239C7.70841 10.9226 7.74801 11.3613 7.67084 11.7845C7.59367 12.2078 7.40319 12.5965 7.12348 12.9017C6.84378 13.2068 6.48741 13.4146 6.09945 13.4988C5.71149 13.583 5.30936 13.5398 4.9439 13.3746C4.57845 13.2095 4.26609 12.9298 4.04633 12.571C3.82657 12.2122 3.70927 11.7904 3.70927 11.3589C3.70927 10.7802 3.91998 10.2253 4.29506 9.8161C4.67013 9.40693 5.17884 9.17706 5.70927 9.17706ZM20.0026 19.7589H4.0026L8.97594 14.3262C9.06459 14.2302 9.1844 14.1764 9.30927 14.1764C9.43414 14.1764 9.55395 14.2302 9.6426 14.3262L12.0959 17.0025L15.4759 13.2134C15.5646 13.1175 15.6844 13.0637 15.8093 13.0637C15.9341 13.0637 16.054 13.1175 16.1426 13.2134L20.0026 17.4243V19.7589Z" fill="#081821"/>
</g>
<defs>
<clipPath id="clip0_8228_21102">
<rect width="24" height="24" fill="white"/>
</clipPath>
</defs>
</svg>
