<svg width="24" height="24" viewBox="0 0 24 24" fill="none" xmlns="http://www.w3.org/2000/svg">
<g clip-path="url(#clip0_8228_9553)">
<g clip-path="url(#clip1_8228_9553)">
<path d="M21.5028 4.00008H18.8361V6.19238C18.8361 6.40351 18.7982 6.61256 18.7245 6.80762C18.6508 7.00267 18.5427 7.1799 18.4065 7.32919C18.2703 7.47848 18.1087 7.5969 17.9307 7.67769C17.7528 7.75848 17.562 7.80007 17.3694 7.80007C17.1768 7.80007 16.9861 7.75848 16.8082 7.67769C16.6302 7.5969 16.4685 7.47848 16.3324 7.32919C16.1962 7.1799 16.0881 7.00267 16.0144 6.80762C15.9407 6.61256 15.9028 6.40351 15.9028 6.19238V4.00008H8.13611V6.19238C8.13611 6.61877 7.98159 7.02769 7.70653 7.32919C7.43148 7.63069 7.05843 7.80007 6.66944 7.80007C6.28046 7.80007 5.90741 7.63069 5.63235 7.32919C5.3573 7.02769 5.20278 6.61877 5.20278 6.19238V4.00008H2.53611C2.37746 3.99811 2.22006 4.03102 2.07321 4.09688C1.92637 4.16275 1.79306 4.26022 1.68118 4.38354C1.56931 4.50685 1.48112 4.65351 1.42185 4.81484C1.36258 4.97616 1.33342 5.14888 1.33611 5.32277V21.6773C1.33346 21.8481 1.36154 22.0179 1.41874 22.1768C1.47594 22.3357 1.56114 22.4807 1.66948 22.6036C1.77782 22.7264 1.90718 22.8246 2.05015 22.8926C2.19313 22.9607 2.34693 22.9971 2.50278 23H21.5028C21.6586 22.9971 21.8124 22.9607 21.9554 22.8926C22.0984 22.8246 22.2277 22.7264 22.3361 22.6036C22.4444 22.4807 22.5296 22.3357 22.5868 22.1768C22.644 22.0179 22.6721 21.8481 22.6694 21.6773V5.32277C22.6721 5.15195 22.644 4.98222 22.5868 4.82329C22.5296 4.66436 22.4444 4.51935 22.3361 4.39652C22.2277 4.27369 22.0984 4.17546 21.9554 4.10744C21.8124 4.03942 21.6586 4.00294 21.5028 4.00008ZM6.66944 18.6154H5.33611V17.1539H6.66944V18.6154ZM6.66944 14.9616H5.33611V13.5H6.66944V14.9616ZM6.66944 11.3077H5.33611V9.84621H6.66944V11.3077ZM10.6694 18.6154H9.33611V17.1539H10.6694V18.6154ZM10.6694 14.9616H9.33611V13.5H10.6694V14.9616ZM10.6694 11.3077H9.33611V9.84621H10.6694V11.3077ZM14.6694 18.6154H13.3361V17.1539H14.6694V18.6154ZM14.6694 14.9616H13.3361V13.5H14.6694V14.9616ZM14.6694 11.3077H13.3361V9.84621H14.6694V11.3077ZM18.6694 18.6154H17.3361V17.1539H18.6694V18.6154ZM18.6694 14.9616H17.3361V13.5H18.6694V14.9616ZM18.6694 11.3077H17.3361V9.84621H18.6694V11.3077Z" fill="#081821"/>
<path d="M6.66667 6.66536C6.84348 6.66536 7.01305 6.59513 7.13807 6.4701C7.2631 6.34508 7.33333 6.17551 7.33333 5.9987V1.9987C7.33333 1.82189 7.2631 1.65232 7.13807 1.52729C7.01305 1.40227 6.84348 1.33203 6.66667 1.33203C6.48986 1.33203 6.32029 1.40227 6.19526 1.52729C6.07024 1.65232 6 1.82189 6 1.9987V5.9987C6 6.17551 6.07024 6.34508 6.19526 6.4701C6.32029 6.59513 6.48986 6.66536 6.66667 6.66536Z" fill="#081821"/>
<path d="M17.3346 6.66536C17.5114 6.66536 17.681 6.59513 17.806 6.4701C17.9311 6.34508 18.0013 6.17551 18.0013 5.9987V1.9987C18.0013 1.82189 17.9311 1.65232 17.806 1.52729C17.681 1.40227 17.5114 1.33203 17.3346 1.33203C17.1578 1.33203 16.9883 1.40227 16.8632 1.52729C16.7382 1.65232 16.668 1.82189 16.668 1.9987V5.9987C16.668 6.17551 16.7382 6.34508 16.8632 6.4701C16.9883 6.59513 17.1578 6.66536 17.3346 6.66536Z" fill="#081821"/>
</g>
</g>
<defs>
<clipPath id="clip0_8228_9553">
<rect width="24" height="24" fill="white"/>
</clipPath>
<clipPath id="clip1_8228_9553">
<rect width="24" height="24" fill="white"/>
</clipPath>
</defs>
</svg>
