<svg width="32" height="32" viewBox="0 0 32 32" fill="none" xmlns="http://www.w3.org/2000/svg">
<path d="M8 25.3333H12V18.6667C12 18.2889 12.1278 17.9722 12.3833 17.7167C12.6389 17.4611 12.9556 17.3333 13.3333 17.3333H18.6667C19.0444 17.3333 19.3611 17.4611 19.6167 17.7167C19.8722 17.9722 20 18.2889 20 18.6667V25.3333H24V13.3333L16 7.33333L8 13.3333V25.3333ZM5.33333 25.3333V13.3333C5.33333 12.9111 5.42778 12.5111 5.61667 12.1333C5.80556 11.7556 6.06667 11.4444 6.4 11.2L14.4 5.2C14.8667 4.84444 15.4 4.66667 16 4.66667C16.6 4.66667 17.1333 4.84444 17.6 5.2L25.6 11.2C25.9333 11.4444 26.1944 11.7556 26.3833 12.1333C26.5722 12.5111 26.6667 12.9111 26.6667 13.3333V25.3333C26.6667 26.0667 26.4056 26.6944 25.8833 27.2167C25.3611 27.7389 24.7333 28 24 28H18.6667C18.2889 28 17.9722 27.8722 17.7167 27.6167C17.4611 27.3611 17.3333 27.0444 17.3333 26.6667V20H14.6667V26.6667C14.6667 27.0444 14.5389 27.3611 14.2833 27.6167C14.0278 27.8722 13.7111 28 13.3333 28H8C7.26667 28 6.63889 27.7389 6.11667 27.2167C5.59444 26.6944 5.33333 26.0667 5.33333 25.3333Z" fill="#081821"/>
</svg>
