<svg width="24" height="24" viewBox="0 0 24 24" fill="none" xmlns="http://www.w3.org/2000/svg">
<g clip-path="url(#clip0_8171_38470)">
<g clip-path="url(#clip1_8171_38470)">
<path d="M21.9981 12.6631C21.9103 12.6636 21.8234 12.6468 21.7421 12.6136C21.6609 12.5805 21.587 12.5316 21.5247 12.4698L11.9981 2.93647L2.4714 12.4698C2.34386 12.579 2.17981 12.6361 2.01203 12.6296C1.84425 12.6231 1.68509 12.5536 1.56636 12.4348C1.44763 12.3161 1.37807 12.157 1.37159 11.9892C1.36511 11.8214 1.42218 11.6573 1.5314 11.5298L11.5314 1.5298C11.6563 1.40563 11.8253 1.33594 12.0014 1.33594C12.1775 1.33594 12.3465 1.40563 12.4714 1.5298L22.4714 11.5298C22.5631 11.6234 22.6253 11.7419 22.65 11.8706C22.6747 11.9993 22.661 12.1325 22.6105 12.2534C22.56 12.3743 22.4749 12.4777 22.366 12.5506C22.2571 12.6234 22.1291 12.6626 21.9981 12.6631Z" fill="#081821"/>
<path d="M12 5.19531L4 13.222V21.3353C4 21.6889 4.14048 22.0281 4.39052 22.2781C4.64057 22.5282 4.97971 22.6686 5.33333 22.6686H10V16.002H14V22.6686H18.6667C19.0203 22.6686 19.3594 22.5282 19.6095 22.2781C19.8595 22.0281 20 21.6889 20 21.3353V13.1753L12 5.19531Z" fill="#081821"/>
</g>
</g>
<defs>
<clipPath id="clip0_8171_38470">
<rect width="24" height="24" fill="white"/>
</clipPath>
<clipPath id="clip1_8171_38470">
<rect width="24" height="24" fill="white"/>
</clipPath>
</defs>
</svg>
