<svg width="22" height="22" viewBox="0 0 22 22" fill="none" xmlns="http://www.w3.org/2000/svg">
<path d="M18.2785 8.59635C17.7706 7.4037 16.9778 6.35394 15.9696 5.53923C14.9613 4.72452 13.7685 4.16977 12.4958 3.92367L13.6455 2.08422L12.4795 1.35547L10.9625 3.78269C9.41724 3.78986 7.90794 4.24958 6.62108 5.10506C5.33422 5.96054 4.32619 7.17429 3.72153 8.59635C2.91159 8.61174 2.14002 8.9443 1.57268 9.52253C1.00533 10.1008 0.6875 10.8785 0.6875 11.6886C0.6875 12.4987 1.00533 13.2764 1.57268 13.8547C2.14002 14.4329 2.91159 14.7654 3.72153 14.7808C4.32876 16.2087 5.34259 17.4265 6.63678 18.2825C7.93097 19.1384 9.44835 19.5949 11 19.5949C12.5517 19.5949 14.069 19.1384 15.3632 18.2825C16.6574 17.4265 17.6712 16.2087 18.2785 14.7808C19.0884 14.7654 19.86 14.4329 20.4273 13.8547C20.9947 13.2764 21.3125 12.4987 21.3125 11.6886C21.3125 10.8785 20.9947 10.1008 20.4273 9.52253C19.86 8.9443 19.0884 8.61174 18.2785 8.59635ZM19.4452 12.8921C19.1307 13.2138 18.7021 13.3984 18.2524 13.4061L17.3618 13.423L17.0132 14.2426C16.5116 15.4224 15.6741 16.4286 14.6049 17.1358C13.5356 17.8431 12.282 18.2202 11 18.2202C9.71805 18.2202 8.4644 17.8431 7.39518 17.1358C6.32596 16.4286 5.48841 15.4224 4.98683 14.2426L4.63818 13.423L3.74765 13.4061C3.29771 13.3977 2.86904 13.213 2.55381 12.8918C2.23859 12.5707 2.06199 12.1386 2.06199 11.6886C2.06199 11.2386 2.23859 10.8065 2.55381 10.4853C2.86904 10.1642 3.29771 9.97951 3.74765 9.97109L4.63818 9.95416L4.98683 9.13457C5.48842 7.95481 6.32598 6.94867 7.3952 6.24142C8.46442 5.53417 9.71806 5.15706 11 5.15706C12.282 5.15706 13.5356 5.53417 14.6049 6.24142C15.6741 6.94867 16.5116 7.95481 17.0132 9.13457L17.3618 9.95416L18.2524 9.97109C18.5879 9.97743 18.9143 10.082 19.1912 10.2718C19.468 10.4616 19.6832 10.7283 19.8101 11.0391C19.9369 11.3498 19.97 11.6909 19.9052 12.0203C19.8403 12.3496 19.6804 12.6527 19.4452 12.8921Z" fill="#081821"/>
<path d="M19.4452 12.8921C19.1307 13.2138 18.7021 13.3984 18.2524 13.4061L17.3618 13.423L17.0132 14.2426C16.5116 15.4224 15.6741 16.4286 14.6049 17.1358C13.5356 17.8431 12.282 18.2202 11 18.2202C9.71805 18.2202 8.4644 17.8431 7.39518 17.1358C6.32596 16.4286 5.48841 15.4224 4.98683 14.2426L4.63818 13.423L3.74765 13.4061C3.29771 13.3977 2.86904 13.213 2.55381 12.8918C2.23859 12.5707 2.06199 12.1386 2.06199 11.6886C2.06199 11.2386 2.23859 10.8065 2.55381 10.4853C2.86904 10.1642 3.29771 9.97951 3.74765 9.97109L4.63818 9.95416L4.98683 9.13457C5.48842 7.95481 6.32598 6.94867 7.3952 6.24142C8.46442 5.53417 9.71806 5.15706 11 5.15706C12.282 5.15706 13.5356 5.53417 14.6049 6.24142C15.6741 6.94867 16.5116 7.95481 17.0132 9.13457L17.3618 9.95416L18.2524 9.97109C18.5879 9.97743 18.9143 10.082 19.1912 10.2718C19.468 10.4616 19.6832 10.7283 19.8101 11.0391C19.9369 11.3498 19.97 11.6909 19.9052 12.0203C19.8403 12.3496 19.6804 12.6527 19.4452 12.8921Z" fill="#081821"/>
<path d="M7.21875 11.0117C7.21875 11.4863 7.60351 11.8711 8.07812 11.8711C8.55274 11.8711 8.9375 11.4863 8.9375 11.0117C8.9375 10.5371 8.55274 10.1523 8.07812 10.1523C7.60351 10.1523 7.21875 10.5371 7.21875 11.0117Z" fill="#FCFCFC"/>
<path d="M13.0625 10.8281C13.0625 11.3027 13.4473 11.6875 13.9219 11.6875C14.3965 11.6875 14.7812 11.3027 14.7812 10.8281C14.7812 10.3535 14.3965 9.96875 13.9219 9.96875C13.4473 9.96875 13.0625 10.3535 13.0625 10.8281Z" fill="#FCFCFC"/>
<path d="M11 16.5C11.4514 16.5 11.8984 16.4111 12.3155 16.2383C12.7325 16.0656 13.1115 15.8124 13.4307 15.4932C13.7499 15.174 14.0031 14.795 14.1758 14.378C14.3486 13.9609 14.4375 13.5139 14.4375 13.0625H7.5625C7.5625 13.5139 7.65141 13.9609 7.82416 14.378C7.99691 14.795 8.25012 15.174 8.56932 15.4932C9.21398 16.1378 10.0883 16.5 11 16.5Z" fill="#FCFCFC"/>
</svg>
