<svg width="22" height="22" viewBox="0 0 22 22" fill="none" xmlns="http://www.w3.org/2000/svg">
<path d="M18.2785 8.59244C17.7706 7.39979 16.9778 6.35004 15.9696 5.53533C14.9613 4.72062 13.7685 4.16586 12.4958 3.91976L13.6455 2.08031L12.4795 1.35156L10.9625 3.77878C9.41724 3.78595 7.90794 4.24568 6.62108 5.10116C5.33422 5.95664 4.32619 7.17039 3.72153 8.59244C2.91159 8.60784 2.14002 8.94039 1.57268 9.51863C1.00533 10.0969 0.6875 10.8746 0.6875 11.6847C0.6875 12.4948 1.00533 13.2725 1.57268 13.8508C2.14002 14.429 2.91159 14.7615 3.72153 14.7769C4.32876 16.2048 5.34259 17.4226 6.63678 18.2786C7.93097 19.1345 9.44835 19.5909 11 19.5909C12.5517 19.5909 14.069 19.1345 15.3632 18.2786C16.6574 17.4226 17.6712 16.2048 18.2785 14.7769C19.0884 14.7615 19.86 14.429 20.4273 13.8508C20.9947 13.2725 21.3125 12.4948 21.3125 11.6847C21.3125 10.8746 20.9947 10.0969 20.4273 9.51863C19.86 8.94039 19.0884 8.60784 18.2785 8.59244ZM19.4452 12.8882C19.1307 13.2099 18.7021 13.3945 18.2524 13.4022L17.3618 13.4191L17.0132 14.2387C16.5116 15.4185 15.6741 16.4246 14.6049 17.1319C13.5356 17.8392 12.282 18.2163 11 18.2163C9.71805 18.2163 8.4644 17.8392 7.39518 17.1319C6.32596 16.4246 5.48841 15.4185 4.98683 14.2387L4.63818 13.4191L3.74765 13.4022C3.29771 13.3938 2.86904 13.2091 2.55381 12.8879C2.23859 12.5668 2.06199 12.1347 2.06199 11.6847C2.06199 11.2347 2.23859 10.8026 2.55381 10.4814C2.86904 10.1603 3.29771 9.97561 3.74765 9.96718L4.63818 9.95025L4.98683 9.13067C5.48842 7.95091 6.32598 6.94476 7.3952 6.23751C8.46442 5.53026 9.71806 5.15316 11 5.15316C12.282 5.15316 13.5356 5.53026 14.6049 6.23751C15.6741 6.94476 16.5116 7.95091 17.0132 9.13067L17.3618 9.95025L18.2524 9.96718C18.5879 9.97353 18.9143 10.0781 19.1912 10.2679C19.468 10.4577 19.6832 10.7244 19.8101 11.0352C19.9369 11.3459 19.97 11.687 19.9052 12.0164C19.8403 12.3457 19.6804 12.6488 19.4452 12.8882Z" fill="#EB7005"/>
<path d="M19.4452 12.8882C19.1307 13.2099 18.7021 13.3945 18.2524 13.4022L17.3618 13.4191L17.0132 14.2387C16.5116 15.4185 15.6741 16.4246 14.6049 17.1319C13.5356 17.8392 12.282 18.2163 11 18.2163C9.71805 18.2163 8.4644 17.8392 7.39518 17.1319C6.32596 16.4246 5.48841 15.4185 4.98683 14.2387L4.63818 13.4191L3.74765 13.4022C3.29771 13.3938 2.86904 13.2091 2.55381 12.8879C2.23859 12.5668 2.06199 12.1347 2.06199 11.6847C2.06199 11.2347 2.23859 10.8026 2.55381 10.4814C2.86904 10.1603 3.29771 9.97561 3.74765 9.96718L4.63818 9.95025L4.98683 9.13067C5.48842 7.95091 6.32598 6.94476 7.3952 6.23751C8.46442 5.53026 9.71806 5.15316 11 5.15316C12.282 5.15316 13.5356 5.53026 14.6049 6.23751C15.6741 6.94476 16.5116 7.95091 17.0132 9.13067L17.3618 9.95025L18.2524 9.96718C18.5879 9.97353 18.9143 10.0781 19.1912 10.2679C19.468 10.4577 19.6832 10.7244 19.8101 11.0352C19.9369 11.3459 19.97 11.687 19.9052 12.0164C19.8403 12.3457 19.6804 12.6488 19.4452 12.8882Z" fill="#EB7005"/>
<path d="M7.21875 11.0156C7.21875 11.4902 7.60351 11.875 8.07812 11.875C8.55274 11.875 8.9375 11.4902 8.9375 11.0156C8.9375 10.541 8.55274 10.1562 8.07812 10.1562C7.60351 10.1562 7.21875 10.541 7.21875 11.0156Z" fill="#FCFCFC"/>
<path d="M13.0625 10.8281C13.0625 11.3027 13.4473 11.6875 13.9219 11.6875C14.3965 11.6875 14.7812 11.3027 14.7812 10.8281C14.7812 10.3535 14.3965 9.96875 13.9219 9.96875C13.4473 9.96875 13.0625 10.3535 13.0625 10.8281Z" fill="#FCFCFC"/>
<path d="M11 16.5C11.4514 16.5 11.8984 16.4111 12.3155 16.2383C12.7325 16.0656 13.1115 15.8124 13.4307 15.4932C13.7499 15.174 14.0031 14.795 14.1758 14.378C14.3486 13.9609 14.4375 13.5139 14.4375 13.0625H7.5625C7.5625 13.5139 7.65141 13.9609 7.82416 14.378C7.99691 14.795 8.25012 15.174 8.56932 15.4932C9.21398 16.1378 10.0883 16.5 11 16.5Z" fill="#FCFCFC"/>
</svg>
