<svg width="21" height="23" viewBox="0 0 21 23" fill="none" xmlns="http://www.w3.org/2000/svg">
<path fill-rule="evenodd" clip-rule="evenodd" d="M1.6 0H19.4C19.9601 0 20.2401 0 20.454 0.108993C20.6422 0.204867 20.7951 0.357847 20.891 0.546009C21 0.759921 21 1.03995 21 1.6V16.25C21 16.8101 21 17.0901 20.891 17.304C20.7951 17.4922 20.6422 17.6451 20.454 17.741C20.2401 17.85 19.9601 17.85 19.4 17.85H8.4L4.2 22.05V17.85H1.6C1.03995 17.85 0.759921 17.85 0.546009 17.741C0.357847 17.6451 0.204867 17.4922 0.108993 17.304C0 17.0901 0 16.8101 0 16.25V1.6C0 1.03995 0 0.759921 0.108993 0.546009C0.204867 0.357847 0.357847 0.204867 0.546009 0.108993C0.759921 0 1.03995 0 1.6 0ZM3.83289 5.25C3.45596 5.25 3.15039 5.55557 3.15039 5.9325C3.15039 6.30943 3.45596 6.615 3.83289 6.615H16.1179C16.4948 6.615 16.8004 6.30943 16.8004 5.9325C16.8004 5.55557 16.4948 5.25 16.1179 5.25H3.83289ZM3.15039 9.08252C3.15039 8.70559 3.45596 8.40002 3.83289 8.40002H16.1179C16.4948 8.40002 16.8004 8.70559 16.8004 9.08252C16.8004 9.45946 16.4948 9.76502 16.1179 9.76502H3.83289C3.45596 9.76502 3.15039 9.45946 3.15039 9.08252ZM3.83289 11.55C3.45596 11.55 3.15039 11.8556 3.15039 12.2325C3.15039 12.6095 3.45596 12.915 3.83289 12.915H14.5429C14.9198 12.915 15.2254 12.6095 15.2254 12.2325C15.2254 11.8556 14.9198 11.55 14.5429 11.55H3.83289Z" fill="#081821"/>
</svg>
